<?xml version="1.0" encoding="UTF-8"?>
<svg xmlns="http://www.w3.org/2000/svg" viewBox="0 0 226.8 98.6" height="98">
                    <title>STATISTIK AUSTRIA - Die Informationsmanager</title>
                    <style type="text/css">
	.st0{fill:#555555;}
	.st1{fill:#B0063D;}
	.st2{fill:none;stroke:#000000;stroke-width:0.5314;stroke-miterlimit:3.8637;}
</style>
<g>
	<g>
		<g>
			<path class="st0" d="M40.4,67c-0.4-0.5-0.9-0.8-1.5-0.8c-1,0-1.5,0.8-1.5,1.7c0,1.2,0.9,1.8,1.8,2.4c0.9,0.6,1.8,1.3,1.8,2.7
				c0,1.5-1,2.9-2.6,2.9c-0.6,0-1.2-0.2-1.6-0.5V74c0.4,0.5,1,0.8,1.7,0.8c1,0,1.6-0.9,1.6-1.8c0-1.2-0.9-1.7-1.8-2.3
				c-0.9-0.6-1.8-1.3-1.8-2.8c0-1.4,0.8-2.7,2.4-2.7c0.6,0,1.1,0.2,1.6,0.6L40.4,67L40.4,67z"/>
			<path class="st0" d="M50.3,66.2h-1.5v9.4h-1v-9.4h-1.5v-0.9h4.1L50.3,66.2L50.3,66.2z"/>
		</g>
		<g>
			<path class="st0" d="M59.4,75.6h-1L58,73.5h-2.2l-0.4,2.1h-1l2-10.3h0.9L59.4,75.6z M57.9,72.7l-0.7-3.9
				c-0.1-0.7-0.2-1.4-0.3-2.1h-0.1c-0.1,0.7-0.2,1.4-0.3,2.1L56,72.7H57.9z"/>
		</g>
		<g>
			<path class="st0" d="M68.6,66.2h-1.5v9.4h-1v-9.4h-1.5v-0.9h4.1L68.6,66.2L68.6,66.2z"/>
			<path class="st0" d="M75.3,75.6h-1V65.3h1V75.6z"/>
			<path class="st0" d="M85.3,67c-0.4-0.5-0.9-0.8-1.5-0.8c-1,0-1.5,0.8-1.5,1.7c0,1.2,0.9,1.8,1.8,2.4c0.9,0.6,1.8,1.3,1.8,2.7
				c0,1.5-1,2.9-2.6,2.9c-0.6,0-1.2-0.2-1.6-0.5V74c0.4,0.5,1,0.8,1.7,0.8c1,0,1.6-0.9,1.6-1.8c0-1.2-0.9-1.7-1.8-2.3
				c-0.9-0.6-1.8-1.3-1.8-2.8c0-1.4,0.8-2.7,2.4-2.7c0.6,0,1.1,0.2,1.6,0.6L85.3,67L85.3,67z"/>
			<path class="st0" d="M95.1,66.2h-1.5v9.4h-1v-9.4h-1.5v-0.9h4V66.2z"/>
			<path class="st0" d="M101.8,75.6h-1V65.3h1V75.6z"/>
			<path class="st0" d="M110,70.2l2.3,5.4h-1.1l-2.1-5.2h0v5.2h-1V65.3h1V70h0l2.1-4.7h1.1L110,70.2z"/>
			<path class="st0" d="M129.8,75.6h-1l-0.4-2.1h-2.2l-0.4,2.1h-1l2-10.3h0.9L129.8,75.6z M128.3,72.7l-0.7-3.9
				c-0.1-0.7-0.2-1.4-0.3-2.1h-0.1c-0.1,0.7-0.2,1.4-0.3,2.1l-0.6,3.9H128.3z"/>
			<path class="st0" d="M139.7,72.4c0,1.9-0.1,3.4-2.2,3.4c-2.1,0-2.2-1.6-2.2-3.4v-7h1v7c0,1.7,0.1,2.5,1.2,2.5
				c1.1,0,1.2-0.8,1.2-2.5v-7h1V72.4z"/>
			<path class="st0" d="M149.7,67c-0.4-0.5-0.9-0.8-1.5-0.8c-1,0-1.5,0.8-1.5,1.7c0,1.2,0.9,1.8,1.8,2.4c0.9,0.6,1.8,1.3,1.8,2.7
				c0,1.5-1,2.9-2.6,2.9c-0.6,0-1.2-0.2-1.6-0.5V74c0.4,0.5,1,0.8,1.7,0.8c1,0,1.6-0.9,1.6-1.8c0-1.2-0.9-1.7-1.8-2.3
				c-0.9-0.6-1.8-1.3-1.8-2.8c0-1.4,0.9-2.7,2.4-2.7c0.6,0,1.1,0.2,1.6,0.6L149.7,67L149.7,67z"/>
			<path class="st0" d="M159.6,66.2H158v9.4h-1v-9.4h-1.5v-0.9h4.1L159.6,66.2L159.6,66.2z"/>
			<path class="st0" d="M165.3,75.6V65.3h1c1.4,0,2.8,0.1,2.8,2.6c0,1.3-0.3,2.6-1.9,2.7l2.3,5h-1l-2.2-5h0v5H165.3z M166.2,69.8
				h0.3c1.3,0,1.6-0.5,1.6-1.8c0-1.6-0.5-1.8-1.7-1.8h-0.2L166.2,69.8L166.2,69.8z"/>
			<path class="st0" d="M176.2,75.6h-1V65.3h1V75.6z"/>
			<path class="st0" d="M186.8,75.6h-1l-0.4-2.1h-2.2l-0.4,2.1h-1l2-10.3h0.9L186.8,75.6z M185.3,72.7l-0.7-3.9
				c-0.1-0.7-0.2-1.4-0.3-2.1h-0.1c-0.1,0.7-0.2,1.4-0.3,2.1l-0.6,3.9H185.3z"/>
		</g>
	</g>
	<path class="st1" d="M113,31.7L85.5,47.7L113,0l27.5,47.7L113,31.7 M113,29.6l22.5,13L113,3.6V29.6"/>
	<path class="st1" d="M207.6,67.1c4.2-4.2-9.2-6.3-27.6-8.7c-18.3-2.4-40.5-4.3-66.6-4.3c-25.9,0-48.1,1.9-66.6,4.3
		c-18.4,2.4-31.5,4.5-27.6,8.6c2.4,2.5,7.5,4.8,7.5,4.8c-6.4-1.3-10.3-2.1-11.8-2.5c-6.9-1.9-9.2-4.1-9.2-6.1
		c0-3.8,9.5-4.7,30.7-7.5c21.3-2.7,46.9-4.1,77-4.1c30.3,0,56,1.4,77,4.1c21.2,2.8,30.6,3.7,30.6,7.6c0,2.8-6.2,5.8-20.8,8.5
		C200.3,71.8,205.2,69.5,207.6,67.1"/>
	<g>
		<g>
			<path d="M52.5,88.4h0.8c1.5,0,2.5,0.2,2.5,4c0,3.1-0.5,4-2.5,4h-0.9C52.5,96.4,52.5,88.4,52.5,88.4z M53.2,95.7h0.2
				c1.4,0,1.6-1,1.6-3.3c0-2.8-0.3-3.3-1.7-3.3h-0.1V95.7z"/>
			<path d="M59.2,89.9c-0.3,0-0.5-0.2-0.5-0.5c0-0.3,0.2-0.5,0.5-0.5c0.3,0,0.5,0.2,0.5,0.5C59.7,89.7,59.4,89.9,59.2,89.9z
				 M59.5,96.4h-0.7V91h0.7V96.4z"/>
			<path d="M63.1,93.8V94c0,0.5,0.1,1.9,0.8,1.9c0.6,0,0.7-0.8,0.7-1.3h0.7c0,0.8-0.3,1.9-1.3,1.9c-1.4,0-1.6-1.7-1.6-2.8
				c0-1,0.2-2.8,1.5-2.8c1.3,0,1.5,1.7,1.5,2.6v0.3L63.1,93.8L63.1,93.8z M64.7,93.3L64.7,93.3c0-0.6-0.1-1.7-0.8-1.7
				c-0.7,0-0.8,1.2-0.8,1.7H64.7z"/>
			<path d="M73.6,96.4h-0.7v-8h0.7V96.4z"/>
			<path d="M77.5,91.4c0.3-0.3,0.7-0.5,1.1-0.5c1,0,1.1,0.9,1.1,1.6v3.9h-0.7v-3.8c0-0.7,0-1.2-0.6-1.2c-0.8,0-0.8,0.9-0.8,1.4v3.5
				h-0.7V91h0.7L77.5,91.4L77.5,91.4z"/>
			<path d="M84.4,91.6h-0.9v4.8h-0.7v-4.8h-0.6V91h0.6v-1.6c0-0.9,0.2-1.5,1-1.5c0.2,0,0.4,0,0.6,0.1v0.8c-0.2-0.1-0.3-0.2-0.5-0.2
				c-0.4,0-0.4,0.3-0.4,0.9V91h0.9L84.4,91.6L84.4,91.6z"/>
			<path d="M90,93.7c0,1-0.1,2.8-1.6,2.8s-1.6-1.8-1.6-2.8c0-1,0.1-2.8,1.6-2.8C89.8,90.9,90,92.7,90,93.7z M87.6,93.7
				c0,0.5,0,2.2,0.8,2.2s0.8-1.6,0.8-2.2c0-0.5,0-2.2-0.8-2.2S87.6,93.2,87.6,93.7z"/>
		</g>
		<g>
			<path d="M93.6,91.7L93.6,91.7c0.2-0.4,0.5-0.8,0.9-0.8v0.8l-0.1,0c-0.7,0-0.8,0.7-0.8,1.6v3.2h-0.7V91h0.7V91.7z"/>
		</g>
		<g>
			<path d="M97.9,91.4L97.9,91.4c0.3-0.3,0.6-0.5,1-0.5c0.4,0,0.8,0.2,1,0.7c0.3-0.4,0.6-0.7,1.1-0.7c1,0,1.1,0.8,1.1,1.6v3.9h-0.7
				v-3.9c0-0.5-0.1-1.1-0.6-1.1c-0.8,0-0.8,0.9-0.8,1.6v3.3h-0.7v-3.9c0-0.5,0-1.1-0.6-1.1c-0.8,0-0.9,1-0.9,1.7v3.2h-0.7V91h0.7
				L97.9,91.4L97.9,91.4z"/>
			<path d="M108,96.4h-0.7V96h0c-0.2,0.3-0.5,0.5-0.9,0.5c-0.9,0-1.3-0.5-1.3-2.9c0-1.2,0-2.8,1.4-2.8c0.4,0,0.6,0.2,0.8,0.5h0V91
				h0.7L108,96.4L108,96.4z M106.7,91.5c-0.8,0-0.8,1.2-0.8,2.1c0,2.3,0.4,2.3,0.8,2.3c0.7,0,0.8-0.6,0.8-2.3
				C107.4,92.4,107.3,91.5,106.7,91.5z"/>
			<path d="M113,91.6h-0.9v4.8h-0.7v-4.8h-0.6V91h0.6v-1.5h0.7V91h0.9V91.6z"/>
			<path d="M115.8,89.9c-0.3,0-0.5-0.2-0.5-0.5c0-0.3,0.2-0.5,0.5-0.5c0.3,0,0.5,0.2,0.5,0.5C116.3,89.7,116.1,89.9,115.8,89.9z
				 M116.2,96.4h-0.7V91h0.7V96.4z"/>
			<path d="M122.2,93.7c0,1-0.1,2.8-1.6,2.8s-1.6-1.8-1.6-2.8c0-1,0.1-2.8,1.6-2.8C122.1,90.9,122.2,92.7,122.2,93.7z M119.8,93.7
				c0,0.5,0,2.2,0.9,2.2s0.9-1.6,0.9-2.2c0-0.5,0-2.2-0.9-2.2C119.8,91.5,119.8,93.2,119.8,93.7z"/>
			<path d="M125.8,91.4c0.3-0.3,0.6-0.5,1.1-0.5c1,0,1.1,0.9,1.1,1.6v3.9h-0.7v-3.8c0-0.7,0-1.2-0.6-1.2c-0.8,0-0.8,0.9-0.8,1.4v3.5
				h-0.7V91h0.7L125.8,91.4L125.8,91.4z"/>
			<path d="M133.1,92.1L133.1,92.1c-0.2-0.3-0.5-0.6-0.9-0.6c-0.4,0-0.7,0.3-0.7,0.7c0,0.5,0.4,0.8,0.9,1.2c0.4,0.4,0.9,0.8,0.9,1.5
				c0,0.9-0.6,1.6-1.5,1.6c-0.3,0-0.7-0.2-1-0.4v-0.8c0.3,0.3,0.6,0.5,1,0.5c0.5,0,0.8-0.4,0.8-0.8c0-0.5-0.4-0.9-0.9-1.3
				c-0.4-0.4-0.9-0.8-0.9-1.4c0-0.8,0.5-1.4,1.4-1.4c0.4,0,0.7,0.1,1,0.3L133.1,92.1L133.1,92.1z"/>
			<path d="M136.8,91.4L136.8,91.4c0.3-0.3,0.6-0.5,1.1-0.5c0.4,0,0.8,0.2,1,0.7c0.3-0.4,0.6-0.7,1.1-0.7c1,0,1.1,0.8,1.1,1.6v3.9
				h-0.7v-3.9c0-0.5-0.1-1.1-0.6-1.1c-0.8,0-0.8,0.9-0.8,1.6v3.3h-0.7v-3.9c0-0.5,0-1.1-0.6-1.1c-0.8,0-0.9,1-0.9,1.7v3.2h-0.7V91
				h0.7L136.8,91.4L136.8,91.4z"/>
			<path d="M146.9,96.4h-0.7V96h0c-0.2,0.3-0.5,0.5-0.9,0.5c-0.9,0-1.3-0.5-1.3-2.9c0-1.2,0-2.8,1.4-2.8c0.4,0,0.6,0.2,0.8,0.5h0V91
				h0.7L146.9,96.4L146.9,96.4z M145.5,91.5c-0.8,0-0.8,1.2-0.8,2.1c0,2.3,0.4,2.3,0.8,2.3c0.7,0,0.8-0.6,0.8-2.3
				C146.2,92.4,146.2,91.5,145.5,91.5z"/>
			<path d="M150.6,91.4c0.3-0.3,0.6-0.5,1.1-0.5c1,0,1.1,0.9,1.1,1.6v3.9h-0.7v-3.8c0-0.7,0-1.2-0.6-1.2c-0.8,0-0.8,0.9-0.8,1.4v3.5
				h-0.7V91h0.7L150.6,91.4L150.6,91.4z"/>
			<path d="M158.6,96.4h-0.7V96h0c-0.2,0.3-0.5,0.5-0.9,0.5c-0.9,0-1.3-0.5-1.3-2.9c0-1.2,0-2.8,1.4-2.8c0.4,0,0.6,0.2,0.8,0.5h0V91
				h0.7L158.6,96.4L158.6,96.4z M157.2,91.5c-0.8,0-0.8,1.2-0.8,2.1c0,2.3,0.4,2.3,0.8,2.3c0.7,0,0.8-0.6,0.8-2.3
				C157.9,92.4,157.9,91.5,157.2,91.5z"/>
		</g>
		<g>
			<path d="M164.4,96.6c0,1,0,2-1.4,2c-0.9,0-1.4-0.6-1.4-1.5v-0.2h0.7V97c0,0.5,0.1,1,0.7,1c0.8,0,0.7-0.7,0.7-1.3V96
				c-0.2,0.3-0.5,0.4-0.9,0.4c-1.4,0-1.4-1.9-1.4-2.8c0-0.9,0.1-2.7,1.4-2.7c0.4,0,0.7,0.2,0.9,0.5h0V91h0.7V96.6z M163.1,95.8
				c0.7,0,0.8-1.1,0.8-2.3c0-1-0.1-2.1-0.8-2.1c-0.5,0-0.8,0.3-0.8,2.3C162.2,94.4,162.2,95.8,163.1,95.8z"/>
		</g>
		<g>
			<path d="M168.1,93.8V94c0,0.5,0.1,1.9,0.9,1.9c0.6,0,0.7-0.8,0.7-1.3h0.7c0,0.8-0.3,1.9-1.3,1.9c-1.4,0-1.6-1.7-1.6-2.8
				c0-1,0.2-2.8,1.5-2.8c1.3,0,1.5,1.7,1.5,2.6v0.3L168.1,93.8L168.1,93.8z M169.7,93.3L169.7,93.3c0-0.6,0-1.7-0.8-1.7
				c-0.7,0-0.8,1.2-0.8,1.7H169.7z"/>
		</g>
		<g>
			<path d="M174,91.7L174,91.7c0.2-0.4,0.5-0.8,0.9-0.8v0.8l-0.1,0c-0.7,0-0.8,0.7-0.8,1.6v3.2h-0.7V91h0.7V91.7z"/>
		</g>
	</g>
	<path class="st2" d="M0,82.7h226.8"/>
</g>
                </svg>